# xmcd CD database file
#
# Track frame offsets:
#	150
#	14127
#	27785
#	42085
#	55892
#	68542
#	83002
#	98455
#	113650
#	127512
#	141695
#	154930
#	169965
#	183975
#	197025
#	210912
#	224862
#	239930
#	254090
#	265070
#	280110
#	295800
#	306975
#
# Disc length: 4270 seconds
#
# Revision: 1
# Processed by: cddbd v1.5PL3 Copyright (c) Steve Scherf et al.
# Submitted via: CDex 1.51
#
DISCID=5810ac17
DTITLE=Count Basie And His Orchestra - America's #1 Band! - the Columbia Years - CD3
DYEAR=2003
DGENRE=Jazz
TTITLE0=Five O'Clock Whistle [Kin Gannon-Josef Myron-Gene Irwin]
TTITLE1=Broadway [Henri Woode-Teddy McRae-Bill Bird]
TTITLE2=It's The Same Old South [Edward Eliscu-Jay Gorney]
TTITLE3=Jump The Blues Away [Ed Lewis]
TTITLE4=The Jitters [Tab Smith]
TTITLE5=9:20 Special [Buster Harding-Earle Warren]
TTITLE6=Goin' To Chicago Blues [Count Basie-Jimmy Rushing]
TTITLE7=Harvard Blues [Count Basie-Tab Smith-George Frazier]
TTITLE8=One O'Clock Jump [Count Basie]
TTITLE9=It's Sand, Man [Edward Lewis]
TTITLE10=Ain't It The Truth [Count Basie-Buster Harding]
TTITLE11=Taps Miller [Count Basie-Bob Russell]
TTITLE12=Avenue C [Buck Clayton]
TTITLE13=Blue Skies [Irving Berlin]
TTITLE14=Queer Street [Buck Clayton]
TTITLE15=Lazy Lady Blues [Leonard Feather-Ann Moore]
TTITLE16=Rambo [Count Basie-J. J. Johnson]
TTITLE17=The King [Count Basie]
TTITLE18=Hob Nail Boogie [Buster Harding]
TTITLE19=Mutton Leg [Count Basie-Harry Edison]
TTITLE20=Stay On It [Dizzy Gillespie-Tadd Dameron]
TTITLE21=Little Pony [Neal Hefti]
TTITLE22=Beaver Junction [Harry Edison]
EXTD=YEAR: 2003
EXTT0=
EXTT1=
EXTT2=
EXTT3=
EXTT4=
EXTT5=
EXTT6=
EXTT7=
EXTT8=
EXTT9=
EXTT10=
EXTT11=
EXTT12=
EXTT13=
EXTT14=
EXTT15=
EXTT16=
EXTT17=
EXTT18=
EXTT19=
EXTT20=
EXTT21=
EXTT22=
PLAYORDER=
